<?xml version="1.0" encoding="UTF-8" standalone="no"?>
<svg width="500" height="500" viewBox="0 0 500 500" fill="none" xmlns="http://www.w3.org/2000/svg">
  <defs>
    <!-- Gradients -->
    <linearGradient id="bgGradient" x1="0%" y1="0%" x2="100%" y2="100%">
      <stop offset="0%" stop-color="#2C3E50"/>
      <stop offset="100%" stop-color="#1A2530"/>
    </linearGradient>
    
    <linearGradient id="pythonBlueGradient" x1="0%" y1="0%" x2="100%" y2="100%">
      <stop offset="0%" stop-color="#4B8BBE"/>
      <stop offset="100%" stop-color="#306998"/>
    </linearGradient>
    
    <linearGradient id="pythonYellowGradient" x1="0%" y1="0%" x2="100%" y2="100%">
      <stop offset="0%" stop-color="#FFD43B"/>
      <stop offset="100%" stop-color="#FFE873"/>
    </linearGradient>
    
    <linearGradient id="sparkGradient" x1="0%" y1="0%" x2="100%" y2="100%">
      <stop offset="0%" stop-color="#E25A1C"/>
      <stop offset="100%" stop-color="#FF7C39"/>
    </linearGradient>
    
    <filter id="glow" x="-20%" y="-20%" width="140%" height="140%">
      <feGaussianBlur stdDeviation="5" result="glow"/>
      <feMerge>
        <feMergeNode in="glow"/>
        <feMergeNode in="SourceGraphic"/>
      </feMerge>
    </filter>
    
    <filter id="textShadow" x="-10%" y="-10%" width="120%" height="120%">
      <feDropShadow dx="2" dy="2" stdDeviation="2" flood-color="#000" flood-opacity="0.3"/>
    </filter>
  </defs>
  
  <!-- Background circle with modern gradient -->
  <rect width="500" height="500" rx="70" ry="70" fill="url(#bgGradient)"/>
  
  <!-- Python snake body: blue coil with gradient - moved up 60px -->
  <path d="M145 230 C175 260, 215 250, 235 210 C255 170, 275 130, 325 140 C375 150, 365 210, 325 230" 
        stroke="url(#pythonBlueGradient)" stroke-width="25" fill="none" stroke-linecap="round" filter="url(#glow)"/>
  
  <!-- Python snake body: yellow coil with gradient - moved up 60px -->
  <path d="M145 230 C115 200, 125 150, 165 130 C205 110, 245 120, 265 160 C285 200, 305 240, 325 230" 
        stroke="url(#pythonYellowGradient)" stroke-width="25" fill="none" stroke-linecap="round" filter="url(#glow)"/>
  
  <!-- Python snake head - moved up 60px -->
  <circle cx="145" cy="230" r="20" fill="url(#pythonBlueGradient)"/>
  <circle cx="137" cy="225" r="5" fill="white"/> <!-- Eye -->
  <ellipse cx="152" cy="235" rx="7" ry="5" fill="#222" transform="rotate(-15, 152, 235)"/> <!-- Mouth -->
  
  <!-- Spark element: large spark with gradient and glow - moved up 60px -->
  <path d="M325 230 L375 260 L345 210 L395 190 L335 180 L355 130 L315 170 L295 120 L285 180 L235 160 L285 210 L235 240 L325 230" 
        fill="url(#sparkGradient)" filter="url(#glow)"/>
  
  <!-- Spark element: small sparks with glow - moved up 60px -->
  <circle cx="375" cy="260" r="5" fill="#FFCC00" filter="url(#glow)"/>
  <circle cx="395" cy="190" r="5" fill="#FFCC00" filter="url(#glow)"/>
  <circle cx="355" cy="130" r="5" fill="#FFCC00" filter="url(#glow)"/>
  <circle cx="295" cy="120" r="5" fill="#FFCC00" filter="url(#glow)"/>
  <circle cx="235" cy="160" r="5" fill="#FFCC00" filter="url(#glow)"/>
  <circle cx="235" cy="240" r="5" fill="#FFCC00" filter="url(#glow)"/>
  
  <!-- Extra dynamic spark lines - moved up 60px -->
  <line x1="340" y1="210" x2="360" y2="190" stroke="#FFCC00" stroke-width="2" stroke-linecap="round"/>
  <line x1="320" y1="170" x2="340" y2="150" stroke="#FFCC00" stroke-width="2" stroke-linecap="round"/>
  <line x1="360" y1="230" x2="380" y2="220" stroke="#FFCC00" stroke-width="2" stroke-linecap="round"/>
  
  <!-- Flint text with modern styling and filter - moved up 20px -->
  <g filter="url(#textShadow)">
    <!-- F -->
    <path d="M130 320 L180 320 L180 340 L150 340 L150 350 L170 350 L170 370 L150 370 L150 390 L130 390 Z" fill="white"/>
    <!-- L -->
    <path d="M190 390 L240 390 L240 370 L210 370 L210 320 L190 320 Z" fill="white"/>
    <!-- I -->
    <path d="M250 390 L270 390 L270 320 L250 320 Z" fill="white"/>
    <!-- N -->
    <path d="M280 390 L300 390 L300 340 L320 390 L340 390 L340 320 L320 320 L320 370 L300 320 L280 320 Z" fill="white"/>
    <!-- T -->
    <path d="M350 390 L370 390 L370 340 L390 340 L390 320 L330 320 L330 340 L350 340 Z" fill="white"/>
  </g>
  
  <!-- Modern tagline - moved up 20px -->
  <text x="250" y="418" text-anchor="middle" font-family="Helvetica" font-weight="bold" font-size="18" fill="#9EAFC0" filter="url(#textShadow)">CONFIG-DRIVEN ETL FRAMEWORK</text>
</svg>
